<svg xmlns="http://www.w3.org/2000/svg" width="96" height="85" fill="none" viewBox="0 0 96 85"><rect width="96" height="85" fill="#2d2d2f" rx="6"/><path fill="#fff" d="M32.648 28.71 23.368 57H15.89l12.68-34.125h4.757zM40.36 57l-9.304-28.29-.75-5.835h4.804L47.86 57zm-.422-12.703v5.508H21.915v-5.508zm37.711-5.133v13.523q-.796.961-2.46 2.086-1.665 1.102-4.29 1.899t-6.351.797q-3.304 0-6.024-1.078a13 13 0 0 1-4.687-3.211q-1.946-2.11-3-5.157-1.055-3.07-1.055-7.007v-2.133q0-3.937 1.008-7.008 1.032-3.07 2.93-5.18a12.54 12.54 0 0 1 4.523-3.21q2.626-1.102 5.836-1.102 4.453 0 7.313 1.453 2.859 1.43 4.359 3.984 1.523 2.531 1.875 5.813h-6.82q-.258-1.734-.985-3.024-.726-1.288-2.086-2.015-1.335-.727-3.468-.727-1.759 0-3.141.727-1.36.703-2.297 2.086t-1.43 3.422-.492 4.734v2.18q0 2.67.516 4.734.516 2.04 1.523 3.445a6.64 6.64 0 0 0 2.532 2.086q1.5.703 3.492.703 1.665 0 2.765-.28 1.125-.282 1.805-.68.703-.422 1.078-.797V44.18h-6.422v-5.016z"/></svg>